<svg xmlns="http://www.w3.org/2000/svg" width="48" height="48" viewBox="0 0 48 48">
<defs>
<style>
      .a {
        fill: #c5e1e7;
      }
    </style>
</defs>
<title>Dollar</title>
<path class="a" d="M24,0A24,24,0,1,0,48,24,24,24,0,0,0,24,0Zm2.5,35.83v1.29A1.88,1.88,0,0,1,24.62,39H23.38a1.88,1.88,0,0,1-1.88-1.88V35.85a9.33,9.33,0,0,1-5.08-1.92,1.88,1.88,0,0,1-.17-2.81l.89-.88a1.9,1.9,0,0,1,2.46-.17,4.3,4.3,0,0,0,2.52.81h3.74a1.88,1.88,0,0,0,1.73-1.07,1.8,1.8,0,0,0-1.12-2.46l-6.38-1.91a6.78,6.78,0,0,1-4.84-6.32,7,7,0,0,1,6.25-7V10.88A1.88,1.88,0,0,1,23.38,9h1.24a1.88,1.88,0,0,1,1.88,1.88v1.27a9.39,9.39,0,0,1,5.09,1.92,1.88,1.88,0,0,1,.16,2.8l-.89.89a1.88,1.88,0,0,1-2.45.17,4.36,4.36,0,0,0-2.53-.81H22.13a1.85,1.85,0,0,0-1.87,1.63,1.8,1.8,0,0,0,1.27,1.9l6.38,1.91a6.78,6.78,0,0,1,4.84,6.32A7,7,0,0,1,26.5,35.83Z" id="id_103"></path>
</svg>