<?xml version="1.0" encoding="UTF-8" standalone="no"?> <svg xmlns="http://www.w3.org/2000/svg" xmlns:xlink="http://www.w3.org/1999/xlink" width="512" height="512" viewBox="0 0 512 512">  <defs>    <linearGradient id="a" data-name="New Gradient Swatch 1" x1="17.519" y1="494.481" x2="518.208" y2="-6.208" gradientUnits="userSpaceOnUse">      <stop offset="0" stop-color="#003f8a"/>      <stop offset="0.518" stop-color="#00d7df"/>      <stop offset="1" stop-color="#006df0"/>    </linearGradient>  </defs>    <path d="M431.36,80.64A248,248,0,1,0,80.64,431.36,248,248,0,1,0,431.36,80.64ZM91.95,91.95a230.815,230.815,0,0,1,100.9-59.29c-14.73,12.28-28.24,28.97-39.98,49.69a277.172,277.172,0,0,0-19.24,42.24,252.979,252.979,0,0,1-50.33-23.5Q87.485,96.425,91.95,91.95ZM72.91,113.46a267.325,267.325,0,0,0,55.68,26.28c-10.13,33.07-15.81,69.93-16.51,108.26H24.15A230.01,230.01,0,0,1,72.91,113.46Zm0,285.08A230.01,230.01,0,0,1,24.15,264h87.93c.7,38.33,6.38,75.19,16.51,108.26A267.325,267.325,0,0,0,72.91,398.54Zm19.04,21.51q-4.47-4.47-8.65-9.14a252.979,252.979,0,0,1,50.33-23.5,277.172,277.172,0,0,0,19.24,42.24c11.74,20.72,25.25,37.41,39.98,49.69A230.815,230.815,0,0,1,91.95,420.05ZM248,487.53c-30.36-3.45-58.95-26.49-81.21-65.77a260.011,260.011,0,0,1-17.9-39.19c30.36-8.8,64.1-13.82,99.11-14.49Zm0-135.45c-36.71.68-72.19,5.99-104.18,15.34-9.63-31.5-15.05-66.71-15.74-103.42H248ZM248,248H128.08c.69-36.71,6.11-71.92,15.74-103.42,31.99,9.35,67.47,14.66,104.18,15.34Zm0-104.08c-35.01-.67-68.75-5.69-99.11-14.49a260.011,260.011,0,0,1,17.9-39.19C189.05,50.96,217.64,27.92,248,24.47Zm191.09-30.46A230.01,230.01,0,0,1,487.85,248H399.92c-.7-38.33-6.38-75.19-16.51-108.26A267.325,267.325,0,0,0,439.09,113.46ZM420.05,91.95q4.47,4.47,8.65,9.14a252.979,252.979,0,0,1-50.33,23.5,277.172,277.172,0,0,0-19.24-42.24c-11.74-20.72-25.25-37.41-39.98-49.69A230.815,230.815,0,0,1,420.05,91.95ZM264,24.47c30.36,3.45,58.95,26.49,81.21,65.77a260.011,260.011,0,0,1,17.9,39.19c-30.36,8.8-64.1,13.82-99.11,14.49Zm0,135.45c36.71-.68,72.19-5.99,104.18-15.34,9.63,31.5,15.05,66.71,15.74,103.42H264ZM264,264H383.92c-.69,36.71-6.11,71.92-15.74,103.42-31.99-9.35-67.47-14.66-104.18-15.34Zm0,223.53V368.08c35.01.67,68.75,5.69,99.11,14.49a260.011,260.011,0,0,1-17.9,39.19C322.95,461.04,294.36,484.08,264,487.53Zm156.05-67.48a230.815,230.815,0,0,1-100.9,59.29c14.73-12.28,28.24-28.97,39.98-49.69a277.172,277.172,0,0,0,19.24-42.24,252.979,252.979,0,0,1,50.33,23.5Q424.515,415.575,420.05,420.05Zm19.04-21.51a267.325,267.325,0,0,0-55.68-26.28c10.13-33.07,15.81-69.93,16.51-108.26h87.93A230.01,230.01,0,0,1,439.09,398.54Z" fill="url(#a)"/></svg>